<?xml version="1.0" encoding="iso-8859-1"?>
<!-- Generator: Adobe Illustrator 22.0.1, SVG Export Plug-In . SVG Version: 6.00 Build 0)  -->
<svg version="1.1" id="Layer_1" xmlns="http://www.w3.org/2000/svg" xmlns:xlink="http://www.w3.org/1999/xlink" x="0px" y="0px"
	 viewBox="0 0 63.195 53.917" style="enable-background:new 0 0 63.195 53.917;" xml:space="preserve">
<path style="fill:#0F3B4E;" d="M51.751,39.917H39.744v-2h12.008c5.098,0,8.799-3.967,8.799-9.433c0-4.908-3.271-8.938-7.955-9.799
	l-0.972-0.179l0.167-0.974c0.125-0.731,0.209-1.379,0.209-2.166C51.999,7.996,45.978,2,38.576,2c-5.549,0-10.595,3.515-12.557,8.746
	l-0.36,0.958l-0.949-0.382c-0.917-0.368-1.903-0.555-2.929-0.555c-4.339,0-7.87,3.534-7.87,7.877c0,0.623,0.083,1.271,0.247,1.924
	l0.372,1.485l-1.509-0.256c-0.514-0.087-0.986-0.129-1.442-0.129c-5.079,0-8.909,3.398-8.909,7.904c0,4.602,3.947,8.345,8.799,8.345
	h16.275v2H11.469c-5.955,0-10.799-4.641-10.799-10.345c0-5.646,4.69-9.904,10.909-9.904c0.129,0,0.259,0.002,0.39,0.008
	c-0.039-0.347-0.058-0.692-0.058-1.032c0-5.446,4.428-9.877,9.87-9.877c0.941,0,1.857,0.127,2.735,0.377
	C26.989,3.637,32.521,0,38.576,0c8.504,0,15.423,6.893,15.423,15.366c0,0.577-0.04,1.092-0.097,1.564
	c5.139,1.378,8.648,5.999,8.648,11.553C62.55,35.108,58.009,39.917,51.751,39.917z"/>
<path style="fill:#1F818C;" d="M16.744,44.917h-4.187c-5.804,0-9.324-1.401-12.557-4.997l1.487-1.338
	c2.84,3.16,5.841,4.335,11.07,4.335h4.187V44.917z"/>
<path style="fill:#1F818C;" d="M53.929,44.917h-4.186v-2h4.186c3.047,0,6.317-1.939,7.445-4.415l1.82,0.83
	C61.744,42.515,57.76,44.917,53.929,44.917z"/>
<rect x="29.744" y="16.917" style="fill:#0F3B4E;" width="2" height="8"/>
<polygon style="fill:#0F3B4E;" points="37.744,41.917 35.744,41.917 35.744,27.354 43.744,22.482 43.744,16.917 45.744,16.917 
	45.744,23.606 37.744,28.479 "/>
<g>
	<path style="fill:#80C6B4;" d="M43.108,16.382c-1.102-0.814-1.336-2.368-0.522-3.47c0.814-1.102,2.368-1.336,3.47-0.522
		c1.102,0.814,1.336,2.368,0.522,3.47C45.764,16.962,44.21,17.196,43.108,16.382z"/>
	<path style="fill:#0F3B4E;" d="M44.575,17.868c-0.739,0-1.456-0.234-2.061-0.681l0,0c-1.544-1.14-1.872-3.324-0.731-4.868
		c0.552-0.748,1.363-1.236,2.282-1.374c0.917-0.138,1.837,0.09,2.586,0.643c0.748,0.552,1.236,1.363,1.374,2.282
		s-0.09,1.838-0.643,2.585c-0.552,0.748-1.363,1.236-2.282,1.375C44.924,17.855,44.749,17.868,44.575,17.868z M43.702,15.578
		c0.318,0.235,0.707,0.332,1.1,0.273c0.391-0.059,0.736-0.267,0.971-0.584c0.235-0.319,0.333-0.709,0.274-1.1
		c-0.059-0.391-0.267-0.736-0.585-0.971c-0.318-0.235-0.709-0.333-1.1-0.273c-0.391,0.059-0.736,0.267-0.971,0.585
		C42.906,14.163,43.045,15.092,43.702,15.578L43.702,15.578z"/>
</g>
<g>
	<path style="fill:#80C6B4;" d="M35.892,22.27c-1.102-0.814-1.336-2.368-0.522-3.47c0.814-1.102,2.368-1.336,3.47-0.522
		c1.102,0.814,1.336,2.368,0.522,3.47C38.548,22.851,36.994,23.084,35.892,22.27z"/>
	<path style="fill:#0F3B4E;" d="M37.362,23.754c-0.719,0-1.443-0.221-2.064-0.68c-1.543-1.14-1.872-3.324-0.732-4.868
		c1.141-1.544,3.325-1.871,4.869-0.732c0.748,0.552,1.236,1.363,1.375,2.282c0.138,0.919-0.09,1.837-0.642,2.585
		C39.484,23.266,38.43,23.754,37.362,23.754z M37.368,18.794c-0.454,0-0.903,0.208-1.193,0.601
		c-0.485,0.657-0.345,1.586,0.312,2.071c0.657,0.484,1.586,0.345,2.071-0.312c0.235-0.318,0.332-0.709,0.273-1.1
		c-0.059-0.391-0.267-0.736-0.584-0.971C37.982,18.888,37.673,18.794,37.368,18.794z"/>
</g>
<g>
	<path style="fill:#80C6B4;" d="M29.191,29.177c-1.102-0.814-1.336-2.368-0.522-3.47c0.814-1.102,2.368-1.336,3.47-0.522
		c1.102,0.814,1.336,2.368,0.522,3.47C31.847,29.758,30.293,29.991,29.191,29.177z"/>
	<path style="fill:#0F3B4E;" d="M30.657,30.664c-0.739,0-1.456-0.235-2.061-0.682l0,0l0,0c-1.544-1.141-1.873-3.325-0.732-4.869
		c0.552-0.748,1.363-1.236,2.282-1.374c0.919-0.14,1.838,0.09,2.586,0.643c0.748,0.552,1.236,1.363,1.375,2.282
		c0.138,0.919-0.09,1.837-0.643,2.585c-0.552,0.748-1.363,1.236-2.282,1.374C31.007,30.65,30.832,30.664,30.657,30.664z
		 M30.668,25.7c-0.074,0-0.149,0.005-0.224,0.017c-0.391,0.059-0.736,0.267-0.971,0.585c-0.485,0.657-0.345,1.586,0.312,2.071l0,0
		c0.318,0.234,0.707,0.33,1.1,0.273c0.392-0.059,0.736-0.267,0.972-0.585c0.235-0.318,0.332-0.708,0.273-1.1
		c-0.059-0.391-0.267-0.736-0.584-0.971C31.287,25.8,30.982,25.7,30.668,25.7z"/>
</g>
<polygon style="fill:#0F3B4E;" points="31.744,45.917 29.744,45.917 29.744,35.422 21.744,29.532 21.744,22.917 23.744,22.917 
	23.744,28.521 31.744,34.411 "/>
<g>
	<path style="fill:#80C6B4;" d="M23.831,22.296c1.102-0.814,1.336-2.368,0.522-3.47c-0.814-1.102-2.368-1.336-3.47-0.522
		c-1.102,0.814-1.336,2.368-0.522,3.47C21.176,22.876,22.729,23.11,23.831,22.296z"/>
	<path style="fill:#0F3B4E;" d="M22.362,23.78c-1.068,0-2.123-0.488-2.805-1.411c-1.14-1.544-0.812-3.728,0.732-4.868
		c0.747-0.552,1.662-0.78,2.586-0.643c0.919,0.138,1.73,0.626,2.282,1.374c0.553,0.749,0.781,1.667,0.643,2.586
		c-0.139,0.919-0.626,1.73-1.375,2.282l0,0C23.804,23.559,23.08,23.78,22.362,23.78z M22.354,18.819c-0.314,0-0.619,0.1-0.876,0.29
		c-0.657,0.485-0.797,1.415-0.312,2.072c0.486,0.657,1.415,0.795,2.071,0.311l0,0c0.318-0.235,0.526-0.58,0.584-0.971
		c0.059-0.391-0.038-0.782-0.273-1.101c-0.235-0.318-0.58-0.525-0.971-0.584C22.503,18.824,22.428,18.819,22.354,18.819z"/>
</g>
<g>
	<path style="fill:#80C6B4;" d="M29.18,16.355c-1.102-0.814-1.336-2.368-0.522-3.47c0.814-1.102,2.367-1.336,3.47-0.522
		c1.102,0.814,1.336,2.367,0.522,3.47C31.836,16.935,30.283,17.169,29.18,16.355z"/>
	<path style="fill:#0F3B4E;" d="M30.65,17.839c-0.718,0-1.442-0.221-2.063-0.68c-0.748-0.552-1.236-1.363-1.375-2.282
		c-0.138-0.919,0.09-1.838,0.643-2.586c1.141-1.544,3.324-1.873,4.868-0.732s1.872,3.325,0.732,4.868
		C32.773,17.35,31.718,17.839,30.65,17.839z M30.657,12.878c-0.455,0-0.903,0.208-1.194,0.601c-0.235,0.318-0.332,0.708-0.273,1.1
		c0.059,0.391,0.267,0.736,0.584,0.971l0,0c0.657,0.484,1.585,0.344,2.071-0.312c0.485-0.657,0.345-1.586-0.312-2.071
		C31.27,12.973,30.962,12.878,30.657,12.878z"/>
</g>
<path style="fill:#1F818C;" d="M50.878,35.917h-5.135v-2h5.135c3.07,0,5.865-2.859,5.865-6h2
	C58.744,32.178,55.068,35.917,50.878,35.917z"/>
<path style="fill:#1F818C;" d="M19.744,35.917h-8.321c-3.159,0-6.679-2.464-6.679-6h2c0,2.289,2.47,4,4.679,4h8.321V35.917z"/>
<rect x="35.744" y="43.917" style="fill:#0F3B4E;" width="2" height="2"/>
<rect x="35.744" y="47.917" style="fill:#0F3B4E;" width="2" height="2"/>
<rect x="29.744" y="47.917" style="fill:#0F3B4E;" width="2" height="2"/>
<rect x="29.744" y="51.917" style="fill:#0F3B4E;" width="2" height="2"/>
</svg>
