<!DOCTYPE svg PUBLIC "-//W3C//DTD SVG 20010904//EN" "http://www.w3.org/TR/2001/REC-SVG-20010904/DTD/svg10.dtd">
<svg version="1.0" xmlns="http://www.w3.org/2000/svg" width="1024px" height="1024px" viewBox="0 0 10240 10240" preserveAspectRatio="xMidYMid meet">
<g id="layer101" fill="#d21628" stroke="none">
<path d="M6272 8145 c-361 -68 -634 -200 -853 -412 -151 -147 -261 -317 -323 -503 -21 -60 -26 -68 -26 -42 0 18 7 68 16 110 45 218 157 428 339 635 47 53 85 99 85 102 0 15 -40 0 -103 -41 -201 -130 -338 -307 -388 -503 -59 -229 -66 -782 -14 -1061 8 -41 17 -122 20 -180 9 -135 37 -304 69 -405 14 -44 30 -107 35 -140 18 -98 31 -336 31 -554 l0 -204 -66 7 c-174 18 -399 102 -628 234 -49 29 -91 52 -95 52 -3 0 -21 -18 -41 -41 l-35 -41 4 117 3 118 -50 -6 c-66 -8 -123 -38 -178 -93 -27 -27 -46 -39 -49 -32 -2 7 -16 58 -31 114 -14 56 -30 107 -35 115 -15 21 -109 -86 -150 -170 -19 -39 -37 -70 -40 -70 -15 -2 -184 273 -235 382 -10 20 -21 37 -25 37 -4 0 -22 -35 -39 -77 -92 -221 -139 -421 -149 -631 l-6 -133 -61 41 c-102 68 -260 206 -450 392 -100 98 -185 178 -189 178 -11 0 2 -216 21 -370 24 -188 74 -366 151 -538 4 -9 -1 -12 -18 -8 -13 3 -85 15 -159 26 -436 68 -950 201 -1338 347 -52 19 -96 32 -99 29 -19 -19 265 -318 417 -440 204 -164 500 -335 739 -427 l113 -44 -58 -12 c-285 -60 -764 -59 -1287 2 -213 25 -472 65 -651 101 -56 11 -81 13 -89 5 -6 -6 -9 -12 -6 -14 57 -43 326 -179 495 -250 208 -88 660 -227 736 -227 13 0 18 -4 12 -9 -14 -13 -211 -32 -427 -40 -195 -8 -554 1 -682 18 -68 8 -100 1 -79 -18 28 -26 479 -119 774 -160 489 -68 1232 -105 1650 -83 487 26 1138 139 1335 232 54 26 69 40 142 137 179 239 389 414 597 497 71 29 181 56 228 56 26 0 27 -2 17 -27 -5 -15 -19 -79 -30 -142 -21 -126 -36 -159 -91 -204 l-37 -30 -149 2 c-142 2 -202 -7 -202 -29 0 -5 9 -10 20 -10 12 0 17 -5 14 -14 -8 -21 46 -30 171 -28 l110 3 105 -97 c58 -53 149 -139 202 -191 109 -105 170 -147 242 -168 54 -16 67 -12 99 32 12 17 48 61 80 99 67 80 71 95 22 87 -54 -9 -122 15 -149 51 -30 40 -69 117 -90 179 -40 120 -39 265 2 387 l18 52 59 -45 c70 -51 178 -162 222 -227 50 -74 99 -180 122 -264 56 -205 187 -396 364 -533 127 -98 552 -230 957 -297 399 -66 902 -74 1270 -20 415 61 785 176 1150 358 173 87 190 97 190 114 0 10 -7 12 -25 8 -42 -11 -284 -45 -435 -61 -259 -29 -862 -32 -833 -5 4 5 44 23 88 40 236 93 528 266 795 471 100 76 129 109 99 109 -6 0 -59 -16 -118 -36 -462 -154 -947 -232 -1282 -205 -135 11 -324 45 -350 63 -12 7 -11 11 5 21 199 128 290 201 449 361 126 127 286 318 270 323 -5 2 -79 -22 -164 -53 -396 -144 -822 -274 -899 -274 l-28 0 45 67 c61 91 111 194 166 338 46 123 114 372 103 382 -3 3 -38 -25 -78 -63 -76 -72 -200 -174 -379 -311 l-105 -81 4 83 c8 155 -22 374 -68 498 -20 53 -40 75 -40 44 0 -11 -80 -130 -154 -232 -7 -9 -19 16 -41 83 -20 64 -36 97 -45 97 -8 0 -46 -46 -84 -103 l-69 -104 -13 37 c-6 20 -24 54 -40 76 -30 44 -122 121 -137 116 -5 -1 -27 -50 -47 -107 -39 -108 -44 -111 -60 -36 l-6 31 -110 -2 c-60 -2 -186 -5 -279 -9 l-170 -6 3 114 c8 241 -76 501 -233 723 -140 198 -230 343 -297 476 -72 143 -73 145 -76 236 -5 110 20 285 54 394 56 177 129 302 251 430 103 108 187 171 308 229 87 42 438 179 648 251 135 48 57 63 -170 34 -498 -64 -878 -294 -1058 -640 -40 -76 -44 -67 -14 31 81 261 310 519 654 735 123 77 325 182 463 240 56 23 102 48 102 56 0 16 1 16 -148 -12z"/>
</g>
<g id="layer102" fill="#da7007" stroke="none">
<path d="M6272 8145 c-361 -68 -634 -200 -853 -412 -151 -147 -261 -317 -323 -503 -21 -60 -26 -68 -26 -42 0 18 7 68 16 110 45 218 157 428 339 635 47 53 85 99 85 102 0 15 -40 0 -103 -41 -201 -130 -338 -307 -388 -503 -46 -179 -62 -529 -39 -845 11 -139 34 -284 51 -315 4 -9 20 -61 35 -116 41 -151 126 -366 140 -352 2 2 -7 57 -21 122 -14 65 -24 122 -22 128 1 5 22 -44 46 -109 66 -183 177 -401 195 -383 3 2 -6 27 -19 54 -44 94 -154 444 -194 618 -25 108 -3 346 45 499 56 176 129 301 251 429 103 108 187 171 308 229 87 42 438 179 648 251 135 48 57 63 -170 34 -498 -64 -878 -294 -1058 -640 -40 -76 -44 -67 -14 31 81 261 310 519 654 735 123 77 325 182 463 240 56 23 102 48 102 56 0 16 1 16 -148 -12z"/>
<path d="M3470 5593 c-92 -221 -139 -421 -149 -631 l-6 -133 -61 41 c-102 68 -260 206 -450 392 -100 98 -185 178 -189 178 -11 0 2 -216 21 -370 24 -188 74 -366 151 -538 4 -9 -1 -12 -18 -8 -13 3 -85 15 -159 26 -436 68 -950 201 -1338 347 -52 19 -96 32 -99 29 -19 -19 265 -318 417 -440 204 -164 500 -335 739 -427 l113 -44 -58 -12 c-285 -60 -764 -59 -1287 2 -213 25 -472 65 -651 101 -56 11 -81 13 -89 5 -6 -6 -9 -12 -6 -14 57 -43 326 -179 495 -250 206 -87 660 -227 735 -227 11 0 18 -3 16 -8 -9 -13 176 5 213 20 l35 15 -40 8 c-97 17 -257 58 -345 88 l-95 32 225 7 c388 11 775 75 1215 200 61 17 113 34 118 38 4 3 -28 14 -70 24 -118 28 -205 62 -343 132 -117 60 -227 131 -218 139 2 3 28 -2 58 -10 79 -21 307 -52 435 -60 145 -8 369 9 521 40 120 24 288 75 305 92 5 5 0 36 -11 71 -31 98 -51 277 -57 512 l-6 215 103 -98 c230 -219 448 -349 690 -414 117 -31 324 -42 451 -24 150 22 389 115 471 183 24 20 27 31 29 85 2 35 1 63 -2 64 -2 1 -24 -4 -49 -11 -148 -40 -461 53 -764 228 -49 29 -91 52 -95 52 -3 0 -21 -18 -41 -41 l-35 -41 4 117 3 118 -50 -6 c-66 -8 -123 -38 -178 -93 -27 -27 -46 -39 -49 -32 -2 7 -16 58 -31 114 -14 56 -30 107 -35 115 -15 21 -109 -86 -150 -170 -19 -39 -37 -70 -40 -70 -15 -2 -184 273 -235 382 -10 20 -21 37 -25 37 -4 0 -22 -35 -39 -77z"/>
<path d="M7040 5007 c0 -11 -80 -130 -154 -232 -7 -9 -19 16 -41 83 -20 64 -36 97 -45 97 -8 0 -46 -46 -84 -103 l-69 -104 -13 37 c-6 20 -24 54 -40 76 -30 44 -122 121 -137 116 -5 -1 -27 -50 -47 -107 -36 -100 -39 -104 -49 -77 -6 16 -11 37 -11 47 0 10 -3 21 -7 23 -14 9 -568 -14 -578 -24 -16 -16 67 -120 139 -175 123 -94 292 -164 482 -200 157 -29 317 -2 502 86 l102 49 0 -49 c0 -165 -100 -481 -216 -682 -15 -27 -24 -51 -21 -55 13 -13 333 -5 456 11 193 26 554 109 709 163 32 11 -63 -78 -130 -123 -139 -93 -391 -195 -593 -240 l-80 -17 40 -18 c101 -44 302 -83 526 -100 167 -13 646 -7 826 10 245 24 260 24 238 5 -49 -41 -311 -156 -524 -230 -26 -9 -2 -16 122 -34 123 -18 163 -20 183 -8 5 4 45 21 89 38 238 94 529 267 795 471 100 76 129 109 99 109 -6 0 -59 -16 -118 -36 -462 -154 -947 -232 -1282 -205 -135 11 -324 45 -350 63 -12 7 -11 11 5 21 199 128 290 201 449 361 126 127 286 318 270 323 -5 2 -79 -22 -164 -53 -396 -144 -822 -274 -899 -274 l-28 0 45 67 c61 91 111 194 166 338 46 123 114 372 103 382 -3 3 -38 -25 -78 -63 -76 -72 -200 -174 -379 -311 l-105 -81 4 83 c8 155 -22 374 -68 498 -20 53 -40 75 -40 44z"/>
<path d="M5525 4333 c-31 -38 -91 -118 -133 -180 -42 -62 -81 -112 -85 -112 -11 -1 -1 57 32 185 15 57 25 104 21 104 -14 0 -119 -217 -143 -295 -24 -78 -29 -98 -42 -179 -11 -64 -25 -22 -25 74 0 76 19 237 36 304 5 20 2 26 -10 26 -19 0 -39 -67 -60 -199 -17 -104 -34 -140 -88 -184 l-37 -30 -149 2 c-142 2 -202 -7 -202 -29 0 -5 9 -10 20 -10 12 0 17 -5 14 -14 -8 -21 46 -30 171 -28 l110 3 105 -97 c58 -53 132 -122 164 -153 32 -31 64 -56 70 -56 6 0 33 -15 61 -33 85 -55 157 -65 253 -33 42 13 62 28 93 67 49 62 50 74 4 67 -54 -9 -122 15 -150 52 -34 44 -90 169 -106 235 -18 76 -15 202 6 280 9 36 20 81 24 100 4 19 31 72 59 118 28 45 49 82 47 82 -3 0 -30 -30 -60 -67z"/>
<path d="M4500 3776 c-6 -8 -10 -25 -8 -38 2 -17 10 -23 28 -23 18 0 26 6 28 23 3 22 -13 52 -28 52 -4 0 -13 -7 -20 -14z"/>
<path d="M4567 3774 c-4 -4 -7 -18 -7 -31 0 -18 5 -24 18 -21 10 2 17 12 17 27 0 24 -15 37 -28 25z"/>
<path d="M4620 3740 c0 -11 7 -20 15 -20 8 0 15 9 15 20 0 11 -7 20 -15 20 -8 0 -15 -9 -15 -20z"/>
</g>
<g id="layer103" fill="#d89102" stroke="none">
<path d="M6272 8145 c-361 -68 -634 -200 -853 -412 -151 -147 -261 -317 -323 -503 -21 -60 -26 -68 -26 -42 0 18 7 68 16 110 45 218 157 428 339 635 47 53 85 99 85 102 0 15 -40 0 -103 -41 -201 -130 -338 -307 -388 -503 -46 -178 -62 -531 -39 -842 11 -145 38 -309 50 -309 5 0 12 -15 15 -32 25 -114 139 -437 151 -425 2 2 -10 68 -26 147 -17 79 -29 147 -28 152 2 6 30 -61 62 -149 67 -181 143 -344 181 -388 21 -24 23 -25 11 -5 -39 65 -205 574 -206 633 0 12 -3 65 -6 119 -7 115 15 282 52 399 56 177 129 302 251 430 103 108 187 171 308 229 87 42 438 179 648 251 135 48 57 63 -170 34 -498 -64 -878 -294 -1058 -640 -40 -76 -44 -67 -14 31 81 261 310 519 654 735 123 77 325 182 463 240 56 23 102 48 102 56 0 16 1 16 -148 -12z"/>
<path d="M3470 5593 c-92 -221 -139 -421 -149 -631 l-6 -133 -61 41 c-102 68 -260 206 -450 392 -100 98 -185 178 -189 178 -11 0 2 -216 21 -370 24 -188 74 -366 151 -538 4 -9 -1 -12 -18 -8 -13 3 -85 15 -159 26 -436 68 -950 201 -1338 347 -52 19 -96 32 -99 29 -19 -19 265 -318 417 -440 204 -164 500 -335 739 -427 l113 -44 -58 -12 c-285 -60 -764 -59 -1287 2 -213 25 -472 65 -651 101 -56 11 -81 13 -89 5 -6 -6 -9 -12 -6 -14 57 -43 326 -179 495 -250 206 -87 660 -227 735 -227 11 0 18 -4 15 -8 -6 -10 139 3 194 18 l45 12 -113 23 c-109 22 -378 102 -370 110 2 2 91 6 198 9 303 8 590 45 933 122 137 30 366 91 417 110 8 3 -25 16 -75 29 -85 23 -227 75 -298 111 -111 56 -245 149 -234 161 3 2 47 -4 99 -15 84 -19 160 -29 347 -50 79 -9 349 2 457 18 105 15 273 56 355 87 l66 24 -19 54 c-35 106 -50 233 -55 495 l-6 255 115 -110 c444 -427 926 -546 1411 -350 34 14 97 47 140 72 l77 47 0 63 c0 35 -2 63 -4 63 -2 0 -22 -6 -44 -14 -70 -25 -275 9 -433 72 -115 46 -236 104 -333 160 -49 29 -91 52 -95 52 -3 0 -21 -18 -41 -41 l-35 -41 4 117 3 118 -50 -6 c-66 -8 -123 -38 -178 -93 -27 -27 -46 -39 -49 -32 -2 7 -16 58 -31 114 -14 56 -30 107 -35 115 -15 21 -109 -86 -150 -170 -19 -39 -37 -70 -40 -70 -15 -2 -184 273 -235 382 -10 20 -21 37 -25 37 -4 0 -22 -35 -39 -77z"/>
<path d="M7040 5007 c0 -11 -80 -130 -154 -232 -7 -9 -19 16 -41 83 -20 64 -36 97 -45 97 -8 0 -46 -46 -84 -103 l-69 -104 -13 37 c-6 20 -24 54 -40 76 -30 44 -122 121 -137 116 -5 -1 -27 -50 -47 -107 -39 -108 -44 -111 -59 -36 l-7 31 -115 -2 c-320 -7 -450 -15 -456 -29 -3 -8 10 -35 29 -61 118 -164 456 -313 712 -313 111 0 250 36 374 97 53 26 101 49 106 51 13 7 -2 -137 -26 -248 -36 -169 -118 -381 -191 -497 l-26 -41 40 -7 c192 -33 684 41 1064 159 43 14 82 23 85 20 10 -12 -119 -120 -201 -169 -115 -68 -317 -148 -478 -189 l-134 -34 80 -25 c203 -64 431 -90 798 -90 255 0 445 9 668 34 54 6 101 9 104 6 18 -19 -259 -154 -467 -228 l-95 -34 70 -12 c170 -31 217 -35 240 -21 6 4 46 21 90 38 238 94 529 267 795 471 100 76 129 109 99 109 -6 0 -59 -16 -118 -36 -462 -154 -947 -232 -1282 -205 -135 11 -324 45 -350 63 -12 7 -11 11 5 21 199 128 290 201 449 361 126 127 286 318 270 323 -5 2 -79 -22 -164 -53 -396 -144 -822 -274 -899 -274 l-28 0 45 67 c61 91 111 194 166 338 46 123 114 372 103 382 -3 3 -38 -25 -78 -63 -76 -72 -200 -174 -379 -311 l-105 -81 4 83 c8 155 -22 374 -68 498 -20 53 -40 75 -40 44z"/>
<path d="M5149 4223 c-5 -14 -8 -30 -6 -36 1 -5 8 7 14 27 13 42 7 49 -8 9z"/>
<path d="M5461 4159 c-7 -22 -11 -43 -8 -45 2 -2 9 14 16 37 7 22 11 43 8 45 -2 2 -9 -14 -16 -37z"/>
<path d="M5094 3960 c-9 -22 -35 -57 -58 -77 -34 -29 -35 -33 -11 -18 33 18 67 62 84 108 16 43 3 32 -15 -13z"/>
<path d="M4647 3833 c-13 -12 -7 -23 14 -23 11 0 18 -4 14 -9 -3 -5 0 -13 6 -17 7 -4 9 -3 5 4 -3 6 2 15 11 21 16 9 14 10 -10 11 -16 0 -26 4 -22 10 7 11 -8 14 -18 3z"/>
<path d="M4502 3778 c-7 -7 -12 -16 -12 -22 0 -5 6 -2 13 9 19 25 40 10 35 -26 -3 -15 -1 -26 4 -23 19 12 1 74 -22 74 -3 0 -11 -5 -18 -12z"/>
<path d="M4567 3774 c-12 -13 -7 -24 8 -18 10 4 15 0 15 -11 0 -11 -5 -15 -15 -11 -8 3 -15 1 -15 -5 0 -6 8 -9 18 -7 10 2 17 12 17 27 0 24 -15 37 -28 25z"/>
<path d="M4720 3770 c14 -4 34 -8 45 -8 16 0 15 2 -5 8 -14 4 -34 8 -45 8 -16 0 -15 -2 5 -8z"/>
<path d="M4902 3771 c57 -6 57 -6 207 -143 82 -76 155 -138 162 -138 6 0 33 -16 59 -35 26 -19 64 -42 84 -50 44 -19 146 -19 189 -2 18 8 37 12 43 10 12 -4 94 96 94 115 0 7 -13 9 -35 5 -19 -3 -55 0 -81 7 -53 15 -78 44 -129 151 -20 41 -33 63 -29 49 3 -14 24 -58 45 -99 22 -40 38 -75 37 -76 -2 -2 -37 1 -78 5 -64 7 -97 19 -230 82 -225 108 -279 128 -342 126 l-53 -1 57 -6z m353 -137 c69 -31 125 -60 125 -64 0 -4 -13 -7 -30 -7 -16 0 -27 3 -25 7 3 5 -136 80 -150 80 -13 0 -2 -19 34 -58 21 -23 35 -42 31 -42 -11 0 -120 119 -120 131 0 14 0 13 135 -47z"/>
<path d="M4640 3744 c0 -8 -4 -12 -10 -9 -5 3 -10 1 -10 -4 0 -6 7 -11 15 -11 8 0 15 9 15 20 0 11 -2 20 -5 20 -3 0 -5 -7 -5 -16z"/>
</g>
<g id="layer104" fill="#e0765e" stroke="none">
<path d="M5519 7263 l-34 -38 38 34 c34 33 42 41 34 41 -2 0 -19 -17 -38 -37z"/>
<path d="M5163 5040 c0 -30 2 -43 4 -27 2 15 2 39 0 55 -2 15 -4 2 -4 -28z"/>
<path d="M868 3563 c12 -2 32 -2 45 0 12 2 2 4 -23 4 -25 0 -35 -2 -22 -4z"/>
<path d="M1043 3563 c15 -2 37 -2 50 0 12 2 0 4 -28 4 -27 0 -38 -2 -22 -4z"/>
<path d="M2388 3323 c28 -2 76 -2 105 0 28 2 5 3 -53 3 -58 0 -81 -1 -52 -3z"/>
<path d="M2658 3323 c23 -2 61 -2 85 0 23 2 4 4 -43 4 -47 0 -66 -2 -42 -4z"/>
</g>
<g id="layer105" fill="#fdb558" stroke="none">
<path d="M5953 4853 c9 -2 25 -2 35 0 9 3 1 5 -18 5 -19 0 -27 -2 -17 -5z"/>
<path d="M8195 4038 l-50 -53 53 50 c48 46 57 55 49 55 -1 0 -25 -24 -52 -52z"/>
<path d="M1803 3953 c20 -2 54 -2 75 0 20 2 3 4 -38 4 -41 0 -58 -2 -37 -4z"/>
<path d="M5186 3628 c24 -43 49 -58 93 -58 l46 1 -65 34 c-71 37 -85 41 -74 23z"/>
<path d="M1038 3563 c12 -2 30 -2 40 0 9 3 -1 5 -23 4 -22 0 -30 -2 -17 -4z"/>
<path d="M2358 3323 c12 -2 32 -2 45 0 12 2 2 4 -23 4 -25 0 -35 -2 -22 -4z"/>
<path d="M2718 3323 c12 -2 32 -2 45 0 12 2 2 4 -23 4 -25 0 -35 -2 -22 -4z"/>
</g>


</svg>